<mxfile host="app.diagrams.net" modified="2024-02-18T13:22:11.160Z" agent="Mozilla/5.0 (Windows NT 10.0; Win64; x64) AppleWebKit/537.36 (KHTML, like Gecko) Chrome/120.0.0.0 Safari/537.36 OPR/106.0.0.0" etag="YGBtA1V8OKLsCdYKJHBp" version="23.1.5" type="device">
  <diagram name="Page-1" id="qkBSibVPMsvQveIlIOiY">
    <mxGraphModel dx="1306" dy="613" grid="1" gridSize="10" guides="1" tooltips="1" connect="1" arrows="1" fold="1" page="1" pageScale="1" pageWidth="827" pageHeight="1169" math="0" shadow="0">
      <root>
        <mxCell id="0" />
        <mxCell id="1" parent="0" />
        <mxCell id="qZY_TnLAzMftODsfDrD--8" style="edgeStyle=orthogonalEdgeStyle;rounded=0;orthogonalLoop=1;jettySize=auto;html=1;exitX=0.5;exitY=1;exitDx=0;exitDy=0;entryX=0.5;entryY=0;entryDx=0;entryDy=0;" edge="1" parent="1" source="qZY_TnLAzMftODsfDrD--1" target="qZY_TnLAzMftODsfDrD--2">
          <mxGeometry relative="1" as="geometry" />
        </mxCell>
        <mxCell id="qZY_TnLAzMftODsfDrD--1" value="Start" style="ellipse;whiteSpace=wrap;html=1;" vertex="1" parent="1">
          <mxGeometry x="224" y="40" width="120" height="80" as="geometry" />
        </mxCell>
        <mxCell id="qZY_TnLAzMftODsfDrD--9" style="edgeStyle=orthogonalEdgeStyle;rounded=0;orthogonalLoop=1;jettySize=auto;html=1;exitX=0.5;exitY=1;exitDx=0;exitDy=0;entryX=0.5;entryY=0;entryDx=0;entryDy=0;" edge="1" parent="1" source="qZY_TnLAzMftODsfDrD--2" target="qZY_TnLAzMftODsfDrD--6">
          <mxGeometry relative="1" as="geometry" />
        </mxCell>
        <mxCell id="qZY_TnLAzMftODsfDrD--2" value="Get Tile" style="rounded=0;whiteSpace=wrap;html=1;" vertex="1" parent="1">
          <mxGeometry x="224" y="160" width="120" height="60" as="geometry" />
        </mxCell>
        <mxCell id="qZY_TnLAzMftODsfDrD--14" style="edgeStyle=orthogonalEdgeStyle;rounded=0;orthogonalLoop=1;jettySize=auto;html=1;exitX=0.5;exitY=1;exitDx=0;exitDy=0;entryX=0.5;entryY=0;entryDx=0;entryDy=0;" edge="1" parent="1" source="qZY_TnLAzMftODsfDrD--6" target="qZY_TnLAzMftODsfDrD--11">
          <mxGeometry relative="1" as="geometry" />
        </mxCell>
        <mxCell id="qZY_TnLAzMftODsfDrD--25" value="Yes" style="edgeLabel;html=1;align=center;verticalAlign=middle;resizable=0;points=[];" vertex="1" connectable="0" parent="qZY_TnLAzMftODsfDrD--14">
          <mxGeometry x="-0.1" y="-3" relative="1" as="geometry">
            <mxPoint as="offset" />
          </mxGeometry>
        </mxCell>
        <mxCell id="qZY_TnLAzMftODsfDrD--16" style="edgeStyle=orthogonalEdgeStyle;rounded=0;orthogonalLoop=1;jettySize=auto;html=1;exitX=0;exitY=0.5;exitDx=0;exitDy=0;entryX=1;entryY=0.5;entryDx=0;entryDy=0;" edge="1" parent="1" source="qZY_TnLAzMftODsfDrD--6" target="qZY_TnLAzMftODsfDrD--7">
          <mxGeometry relative="1" as="geometry" />
        </mxCell>
        <mxCell id="qZY_TnLAzMftODsfDrD--22" value="No" style="edgeLabel;html=1;align=center;verticalAlign=middle;resizable=0;points=[];" vertex="1" connectable="0" parent="qZY_TnLAzMftODsfDrD--16">
          <mxGeometry x="-0.0323" y="5" relative="1" as="geometry">
            <mxPoint as="offset" />
          </mxGeometry>
        </mxCell>
        <mxCell id="qZY_TnLAzMftODsfDrD--6" value="Tile empty?" style="rhombus;whiteSpace=wrap;html=1;" vertex="1" parent="1">
          <mxGeometry x="234" y="260" width="100" height="100" as="geometry" />
        </mxCell>
        <mxCell id="qZY_TnLAzMftODsfDrD--17" style="edgeStyle=orthogonalEdgeStyle;rounded=0;orthogonalLoop=1;jettySize=auto;html=1;exitX=0.5;exitY=0;exitDx=0;exitDy=0;entryX=0;entryY=0.5;entryDx=0;entryDy=0;" edge="1" parent="1" source="qZY_TnLAzMftODsfDrD--7" target="qZY_TnLAzMftODsfDrD--2">
          <mxGeometry relative="1" as="geometry" />
        </mxCell>
        <mxCell id="qZY_TnLAzMftODsfDrD--23" value="No" style="edgeLabel;html=1;align=center;verticalAlign=middle;resizable=0;points=[];" vertex="1" connectable="0" parent="qZY_TnLAzMftODsfDrD--17">
          <mxGeometry x="0.1709" y="-2" relative="1" as="geometry">
            <mxPoint as="offset" />
          </mxGeometry>
        </mxCell>
        <mxCell id="qZY_TnLAzMftODsfDrD--7" value="Last Tile?" style="rhombus;whiteSpace=wrap;html=1;" vertex="1" parent="1">
          <mxGeometry x="10" y="260" width="100" height="100" as="geometry" />
        </mxCell>
        <mxCell id="qZY_TnLAzMftODsfDrD--18" style="edgeStyle=orthogonalEdgeStyle;rounded=0;orthogonalLoop=1;jettySize=auto;html=1;exitX=0.5;exitY=1;exitDx=0;exitDy=0;entryX=0.5;entryY=0;entryDx=0;entryDy=0;" edge="1" parent="1" source="qZY_TnLAzMftODsfDrD--11" target="qZY_TnLAzMftODsfDrD--12">
          <mxGeometry relative="1" as="geometry" />
        </mxCell>
        <mxCell id="qZY_TnLAzMftODsfDrD--11" value="Check new Tile in new direction" style="rounded=0;whiteSpace=wrap;html=1;" vertex="1" parent="1">
          <mxGeometry x="224" y="400" width="120" height="60" as="geometry" />
        </mxCell>
        <mxCell id="qZY_TnLAzMftODsfDrD--19" style="edgeStyle=orthogonalEdgeStyle;rounded=0;orthogonalLoop=1;jettySize=auto;html=1;exitX=0;exitY=0.5;exitDx=0;exitDy=0;entryX=0.5;entryY=1;entryDx=0;entryDy=0;" edge="1" parent="1" source="qZY_TnLAzMftODsfDrD--12" target="qZY_TnLAzMftODsfDrD--7">
          <mxGeometry relative="1" as="geometry" />
        </mxCell>
        <mxCell id="qZY_TnLAzMftODsfDrD--24" value="No" style="edgeLabel;html=1;align=center;verticalAlign=middle;resizable=0;points=[];" vertex="1" connectable="0" parent="qZY_TnLAzMftODsfDrD--19">
          <mxGeometry x="-0.5134" y="-3" relative="1" as="geometry">
            <mxPoint as="offset" />
          </mxGeometry>
        </mxCell>
        <mxCell id="qZY_TnLAzMftODsfDrD--21" style="edgeStyle=orthogonalEdgeStyle;rounded=0;orthogonalLoop=1;jettySize=auto;html=1;exitX=0.5;exitY=1;exitDx=0;exitDy=0;entryX=0.5;entryY=0;entryDx=0;entryDy=0;" edge="1" parent="1" source="qZY_TnLAzMftODsfDrD--12" target="qZY_TnLAzMftODsfDrD--20">
          <mxGeometry relative="1" as="geometry" />
        </mxCell>
        <mxCell id="qZY_TnLAzMftODsfDrD--26" value="Yes" style="edgeLabel;html=1;align=center;verticalAlign=middle;resizable=0;points=[];" vertex="1" connectable="0" parent="qZY_TnLAzMftODsfDrD--21">
          <mxGeometry x="-0.44" y="2" relative="1" as="geometry">
            <mxPoint as="offset" />
          </mxGeometry>
        </mxCell>
        <mxCell id="qZY_TnLAzMftODsfDrD--12" value="New tile &lt;br&gt;contain &lt;br&gt;opposing &lt;br&gt;disc?" style="rhombus;whiteSpace=wrap;html=1;" vertex="1" parent="1">
          <mxGeometry x="234" y="510" width="100" height="100" as="geometry" />
        </mxCell>
        <mxCell id="qZY_TnLAzMftODsfDrD--32" style="edgeStyle=orthogonalEdgeStyle;rounded=0;orthogonalLoop=1;jettySize=auto;html=1;exitX=0.5;exitY=1;exitDx=0;exitDy=0;entryX=0.5;entryY=0;entryDx=0;entryDy=0;" edge="1" parent="1" source="qZY_TnLAzMftODsfDrD--20" target="qZY_TnLAzMftODsfDrD--27">
          <mxGeometry relative="1" as="geometry" />
        </mxCell>
        <mxCell id="qZY_TnLAzMftODsfDrD--20" value="Check new Tile in same direction" style="rounded=0;whiteSpace=wrap;html=1;" vertex="1" parent="1">
          <mxGeometry x="224" y="660" width="120" height="60" as="geometry" />
        </mxCell>
        <mxCell id="qZY_TnLAzMftODsfDrD--36" style="edgeStyle=orthogonalEdgeStyle;rounded=0;orthogonalLoop=1;jettySize=auto;html=1;exitX=1;exitY=0.5;exitDx=0;exitDy=0;entryX=0;entryY=0.5;entryDx=0;entryDy=0;" edge="1" parent="1" source="qZY_TnLAzMftODsfDrD--27" target="qZY_TnLAzMftODsfDrD--29">
          <mxGeometry relative="1" as="geometry" />
        </mxCell>
        <mxCell id="qZY_TnLAzMftODsfDrD--43" value="Yes" style="edgeLabel;html=1;align=center;verticalAlign=middle;resizable=0;points=[];" vertex="1" connectable="0" parent="qZY_TnLAzMftODsfDrD--36">
          <mxGeometry x="0.3793" y="3" relative="1" as="geometry">
            <mxPoint as="offset" />
          </mxGeometry>
        </mxCell>
        <mxCell id="qZY_TnLAzMftODsfDrD--39" style="edgeStyle=orthogonalEdgeStyle;rounded=0;orthogonalLoop=1;jettySize=auto;html=1;exitX=0.5;exitY=1;exitDx=0;exitDy=0;entryX=0.5;entryY=0;entryDx=0;entryDy=0;" edge="1" parent="1" source="qZY_TnLAzMftODsfDrD--27" target="qZY_TnLAzMftODsfDrD--28">
          <mxGeometry relative="1" as="geometry" />
        </mxCell>
        <mxCell id="qZY_TnLAzMftODsfDrD--44" value="No" style="edgeLabel;html=1;align=center;verticalAlign=middle;resizable=0;points=[];" vertex="1" connectable="0" parent="qZY_TnLAzMftODsfDrD--39">
          <mxGeometry x="-0.28" y="3" relative="1" as="geometry">
            <mxPoint as="offset" />
          </mxGeometry>
        </mxCell>
        <mxCell id="qZY_TnLAzMftODsfDrD--27" value="New tile &lt;br&gt;contains &lt;br&gt;opposing &lt;br&gt;disc?" style="rhombus;whiteSpace=wrap;html=1;" vertex="1" parent="1">
          <mxGeometry x="234" y="770" width="100" height="100" as="geometry" />
        </mxCell>
        <mxCell id="qZY_TnLAzMftODsfDrD--40" style="edgeStyle=orthogonalEdgeStyle;rounded=0;orthogonalLoop=1;jettySize=auto;html=1;exitX=1;exitY=0.5;exitDx=0;exitDy=0;entryX=0;entryY=0.5;entryDx=0;entryDy=0;" edge="1" parent="1" source="qZY_TnLAzMftODsfDrD--28" target="qZY_TnLAzMftODsfDrD--31">
          <mxGeometry relative="1" as="geometry" />
        </mxCell>
        <mxCell id="qZY_TnLAzMftODsfDrD--45" value="Yes" style="edgeLabel;html=1;align=center;verticalAlign=middle;resizable=0;points=[];" vertex="1" connectable="0" parent="qZY_TnLAzMftODsfDrD--40">
          <mxGeometry x="0.0566" y="-1" relative="1" as="geometry">
            <mxPoint as="offset" />
          </mxGeometry>
        </mxCell>
        <mxCell id="qZY_TnLAzMftODsfDrD--42" style="edgeStyle=orthogonalEdgeStyle;rounded=0;orthogonalLoop=1;jettySize=auto;html=1;exitX=0.5;exitY=1;exitDx=0;exitDy=0;entryX=0.5;entryY=1;entryDx=0;entryDy=0;" edge="1" parent="1" source="qZY_TnLAzMftODsfDrD--28" target="qZY_TnLAzMftODsfDrD--48">
          <mxGeometry relative="1" as="geometry">
            <mxPoint x="284" y="1070" as="targetPoint" />
          </mxGeometry>
        </mxCell>
        <mxCell id="qZY_TnLAzMftODsfDrD--46" value="No" style="edgeLabel;html=1;align=center;verticalAlign=middle;resizable=0;points=[];" vertex="1" connectable="0" parent="qZY_TnLAzMftODsfDrD--42">
          <mxGeometry x="-0.2" y="3" relative="1" as="geometry">
            <mxPoint x="-204" y="3" as="offset" />
          </mxGeometry>
        </mxCell>
        <mxCell id="qZY_TnLAzMftODsfDrD--28" value="New tile &lt;br&gt;contains player&#39;s disc?" style="rhombus;whiteSpace=wrap;html=1;" vertex="1" parent="1">
          <mxGeometry x="234" y="920" width="100" height="100" as="geometry" />
        </mxCell>
        <mxCell id="qZY_TnLAzMftODsfDrD--49" style="edgeStyle=orthogonalEdgeStyle;rounded=0;orthogonalLoop=1;jettySize=auto;html=1;exitX=1;exitY=0.5;exitDx=0;exitDy=0;entryX=0;entryY=0.5;entryDx=0;entryDy=0;" edge="1" parent="1" source="qZY_TnLAzMftODsfDrD--29" target="qZY_TnLAzMftODsfDrD--48">
          <mxGeometry relative="1" as="geometry" />
        </mxCell>
        <mxCell id="qZY_TnLAzMftODsfDrD--50" value="Yes" style="edgeLabel;html=1;align=center;verticalAlign=middle;resizable=0;points=[];" vertex="1" connectable="0" parent="qZY_TnLAzMftODsfDrD--49">
          <mxGeometry x="-0.1833" y="-1" relative="1" as="geometry">
            <mxPoint y="-1" as="offset" />
          </mxGeometry>
        </mxCell>
        <mxCell id="qZY_TnLAzMftODsfDrD--51" style="edgeStyle=orthogonalEdgeStyle;rounded=0;orthogonalLoop=1;jettySize=auto;html=1;exitX=0.5;exitY=0;exitDx=0;exitDy=0;entryX=1;entryY=0.5;entryDx=0;entryDy=0;" edge="1" parent="1" source="qZY_TnLAzMftODsfDrD--29" target="qZY_TnLAzMftODsfDrD--20">
          <mxGeometry relative="1" as="geometry" />
        </mxCell>
        <mxCell id="qZY_TnLAzMftODsfDrD--53" value="No" style="edgeLabel;html=1;align=center;verticalAlign=middle;resizable=0;points=[];" vertex="1" connectable="0" parent="qZY_TnLAzMftODsfDrD--51">
          <mxGeometry x="-0.7542" y="1" relative="1" as="geometry">
            <mxPoint as="offset" />
          </mxGeometry>
        </mxCell>
        <mxCell id="qZY_TnLAzMftODsfDrD--29" value="New tile is &lt;br&gt;the last in this direction?" style="rhombus;whiteSpace=wrap;html=1;" vertex="1" parent="1">
          <mxGeometry x="450" y="770" width="100" height="100" as="geometry" />
        </mxCell>
        <mxCell id="qZY_TnLAzMftODsfDrD--54" style="edgeStyle=orthogonalEdgeStyle;rounded=0;orthogonalLoop=1;jettySize=auto;html=1;exitX=1;exitY=0.5;exitDx=0;exitDy=0;entryX=0.5;entryY=1;entryDx=0;entryDy=0;" edge="1" parent="1" source="qZY_TnLAzMftODsfDrD--31" target="qZY_TnLAzMftODsfDrD--48">
          <mxGeometry relative="1" as="geometry" />
        </mxCell>
        <mxCell id="qZY_TnLAzMftODsfDrD--31" value="Add all opposing discs checked in this direction to flippable discs&amp;nbsp;" style="rounded=0;whiteSpace=wrap;html=1;" vertex="1" parent="1">
          <mxGeometry x="440" y="940" width="120" height="60" as="geometry" />
        </mxCell>
        <mxCell id="qZY_TnLAzMftODsfDrD--55" style="edgeStyle=orthogonalEdgeStyle;rounded=0;orthogonalLoop=1;jettySize=auto;html=1;exitX=0.5;exitY=0;exitDx=0;exitDy=0;entryX=1;entryY=0.5;entryDx=0;entryDy=0;" edge="1" parent="1" source="qZY_TnLAzMftODsfDrD--48" target="qZY_TnLAzMftODsfDrD--11">
          <mxGeometry relative="1" as="geometry" />
        </mxCell>
        <mxCell id="qZY_TnLAzMftODsfDrD--56" value="No" style="edgeLabel;html=1;align=center;verticalAlign=middle;resizable=0;points=[];" vertex="1" connectable="0" parent="qZY_TnLAzMftODsfDrD--55">
          <mxGeometry x="-0.7905" y="2" relative="1" as="geometry">
            <mxPoint as="offset" />
          </mxGeometry>
        </mxCell>
        <mxCell id="qZY_TnLAzMftODsfDrD--58" style="edgeStyle=orthogonalEdgeStyle;rounded=0;orthogonalLoop=1;jettySize=auto;html=1;exitX=1;exitY=0.5;exitDx=0;exitDy=0;entryX=0;entryY=0.5;entryDx=0;entryDy=0;" edge="1" parent="1" source="qZY_TnLAzMftODsfDrD--48" target="qZY_TnLAzMftODsfDrD--57">
          <mxGeometry relative="1" as="geometry" />
        </mxCell>
        <mxCell id="qZY_TnLAzMftODsfDrD--59" value="Yes" style="edgeLabel;html=1;align=center;verticalAlign=middle;resizable=0;points=[];" vertex="1" connectable="0" parent="qZY_TnLAzMftODsfDrD--58">
          <mxGeometry x="-0.24" y="-1" relative="1" as="geometry">
            <mxPoint as="offset" />
          </mxGeometry>
        </mxCell>
        <mxCell id="qZY_TnLAzMftODsfDrD--48" value="This &lt;br&gt;direction is&lt;br&gt;the last&lt;br&gt;direction?" style="rhombus;whiteSpace=wrap;html=1;" vertex="1" parent="1">
          <mxGeometry x="670" y="770" width="100" height="100" as="geometry" />
        </mxCell>
        <mxCell id="qZY_TnLAzMftODsfDrD--57" value="End" style="ellipse;whiteSpace=wrap;html=1;" vertex="1" parent="1">
          <mxGeometry x="890" y="780" width="120" height="80" as="geometry" />
        </mxCell>
      </root>
    </mxGraphModel>
  </diagram>
</mxfile>
